<?xml version="1.0" standalone="no"?>
<!DOCTYPE svg PUBLIC "-//W3C//DTD SVG 20010904//EN"
 "http://www.w3.org/TR/2001/REC-SVG-20010904/DTD/svg10.dtd">
<svg version="1.0" xmlns="http://www.w3.org/2000/svg"
 width="315.000000pt" height="315.000000pt" viewBox="0 0 315.000000 315.000000"
 preserveAspectRatio="xMidYMid meet">
<metadata>
Created by potrace 1.14, written by Peter Selinger 2001-2017
</metadata>
<g transform="translate(0.000000,315.000000) scale(0.100000,-0.100000)"
fill="#000000" stroke="none">
<path d="M0 1575 l0 -1575 1575 0 1575 0 0 1575 0 1575 -1575 0 -1575 0 0
-1575z m1628 1151 c15 -8 282 -270 595 -583 531 -533 567 -571 567 -603 0 -33
-36 -71 -583 -617 -508 -509 -586 -583 -612 -583 -26 0 -104 74 -612 582 -548
548 -583 585 -583 618 0 32 35 69 573 608 314 316 581 578 592 582 28 12 33
12 63 -4z"/>
<path d="M1075 2050 l-510 -510 73 -72 72 -73 423 423 c395 394 425 422 457
422 33 0 63 -28 455 -420 231 -231 425 -420 430 -420 6 0 42 32 80 70 l70 70
-510 510 c-281 281 -514 510 -520 510 -6 0 -240 -229 -520 -510z"/>
<path d="M1205 1680 l-390 -390 73 -72 72 -73 303 303 c259 258 307 302 332
302 25 0 73 -44 332 -302 l303 -303 73 73 72 72 -390 390 -390 390 -390 -390z"/>
<path d="M1327 1312 l-267 -267 73 -73 72 -72 174 174 c96 96 185 177 198 181
13 3 33 0 46 -6 12 -6 99 -87 192 -180 l170 -169 73 73 72 72 -268 268 -267
267 -268 -268z"/>
<path d="M1445 940 l-140 -140 145 -145 145 -145 145 145 145 145 -140 140
c-77 77 -144 140 -150 140 -6 0 -73 -63 -150 -140z"/>
</g>
</svg>
